<?xml version="1.0" encoding="UTF-8" standalone="no"?>
<!-- Created with Inkscape (http://www.inkscape.org/) -->

<svg
   width="256"
   height="256"
   viewBox="0 0 67.733335 67.733335"
   version="1.1"
   id="svg5"
   xml:space="preserve"
   xmlns:xlink="http://www.w3.org/1999/xlink"
   xmlns="http://www.w3.org/2000/svg"
   xmlns:svg="http://www.w3.org/2000/svg"><defs
     id="defs2"><linearGradient
       id="linearGradient10133"><stop
         style="stop-color:#1026c8;stop-opacity:1;"
         offset="0"
         id="stop10129" /><stop
         style="stop-color:#aa4646;stop-opacity:1;"
         offset="0.54214144"
         id="stop10137" /><stop
         style="stop-color:#fdd20c;stop-opacity:1;"
         offset="1"
         id="stop10131" /></linearGradient><linearGradient
       xlink:href="#linearGradient10133"
       id="linearGradient10135"
       x1="0.070736006"
       y1="33.866028"
       x2="67.637978"
       y2="33.866028"
       gradientUnits="userSpaceOnUse" /></defs><g
     id="layer1"><path
       style="display:none;fill:#ffffff;stroke:none;stroke-width:0.244277"
       d="M 57.148118,0.20019717 30.547767,22.709297 45.67076,21.023638 21.650991,44.332271 59.624835,17.14477 44.64624,17.788505 59.771472,0.46429253 Z"
       id="path1528" /><path
       id="path5114"
       style="display:none;fill:#ffffff;stroke:none;stroke-width:0.39643"
       d="M 9.758275,7.6878448 A 1.5442181,1.5442181 0 0 1 8.214057,9.2320628 1.5442181,1.5442181 0 0 1 6.6698389,7.6878448 1.5442181,1.5442181 0 0 1 8.214057,6.1436267 1.5442181,1.5442181 0 0 1 9.758275,7.6878448 Z" /><path
       id="rect5116"
       style="display:none;fill:#ffffff;stroke:none;stroke-width:0.471265"
       d="M 2.3050053,1.1021925 C 2.7131335,0.76477182 3.5136333,1.0173843 4.0998478,1.6685884 L 7.7623324,5.7371071 C 8.3485468,6.388311 8.4919158,7.1842076 8.0837877,7.5216283 7.6756594,7.8590489 6.8751594,7.6064362 6.288945,6.9552323 L 2.6264605,2.8867136 C 2.040246,2.2355096 1.896877,1.4396132 2.3050053,1.1021925 Z" /><g
       aria-label="FlipStack"
       transform="translate(-2.546896,-9.6071929)"
       id="text5190"
       style="font-size:8.7181px;font-family:Inter;-inkscape-font-specification:'Inter, @opsz=32.0,wght=900';font-variation-settings:'opsz' 32, 'wght' 900;white-space:pre;inline-size:44.9415;display:none;fill:#ffffff;stroke:none;stroke-width:1.03518"><path
         d="m 16.301488,63.364361 v -6.342758 h 4.763454 v 1.498423 h -2.99259 v 1.123818 h 2.822315 v 1.438827 h -2.822315 v 2.28169 z"
         style="stroke:none;stroke-width:1.03519"
         id="path443" /><path
         d="m 23.304063,57.021603 v 6.342758 H 21.60131 v -6.342758 z"
         style="stroke:none;stroke-width:1.03519"
         id="path445" /><path
         d="m 24.036248,63.364361 v -4.49527 h 1.702753 v 4.49527 z m 0.84712,-4.793252 q -0.400148,0 -0.655561,-0.229872 -0.251156,-0.229872 -0.251156,-0.591707 0,-0.357578 0.251156,-0.583193 0.255413,-0.229872 0.655561,-0.229872 0.400147,0 0.651303,0.229872 0.255413,0.225615 0.255413,0.58745 0,0.357578 -0.255413,0.58745 -0.251156,0.229872 -0.651303,0.229872 z"
         style="stroke:none;stroke-width:1.03519"
         id="path447" /><path
         d="m 26.471185,65.143739 v -6.274648 h 1.685726 v 0.561908 h 0.02128 q 0.131963,-0.221358 0.310752,-0.366092 0.183046,-0.148991 0.417175,-0.221358 0.238386,-0.07662 0.527854,-0.07662 0.566165,0 0.996111,0.297982 0.434202,0.297982 0.681101,0.825836 0.2469,0.527854 0.2469,1.217469 0,0.715157 -0.242643,1.247267 -0.238385,0.527854 -0.672588,0.821579 -0.434202,0.289468 -1.025909,0.289468 -0.297982,0 -0.536367,-0.0894 -0.238386,-0.08939 -0.412918,-0.259669 -0.174532,-0.170276 -0.276698,-0.417175 h -0.01703 v 2.443452 z m 2.439195,-3.013875 q 0.234129,0 0.39589,-0.123449 0.161762,-0.127707 0.2469,-0.357579 0.08514,-0.229871 0.08514,-0.540624 0,-0.310753 -0.08514,-0.536367 -0.08514,-0.225615 -0.2469,-0.349065 -0.161761,-0.127707 -0.39589,-0.127707 -0.229872,0 -0.412918,0.127707 -0.178789,0.12345 -0.280954,0.349065 -0.102165,0.225614 -0.102165,0.536367 0,0.310753 0.102165,0.540624 0.102165,0.229872 0.280954,0.357579 0.183046,0.123449 0.412918,0.123449 z"
         style="stroke:none;stroke-width:1.03519"
         id="path449" /><path
         d="m 34.550752,63.466526 q -0.876918,0 -1.485652,-0.255413 -0.608735,-0.255413 -0.923744,-0.749212 -0.31501,-0.498055 -0.31501,-1.208955 h 1.672956 q 0.01277,0.255413 0.144734,0.438459 0.13622,0.183046 0.370349,0.280955 0.238385,0.09791 0.557652,0.09791 0.280954,0 0.489541,-0.06811 0.208588,-0.07237 0.323524,-0.195817 0.119192,-0.127706 0.119192,-0.293725 0,-0.153248 -0.110679,-0.268184 -0.110679,-0.114936 -0.34055,-0.200073 -0.229872,-0.08514 -0.58745,-0.153248 L 33.835596,60.77192 q -0.919487,-0.174532 -1.404772,-0.647046 -0.485285,-0.472515 -0.485285,-1.179157 0,-0.604478 0.32778,-1.059965 0.32778,-0.455486 0.910973,-0.710899 0.583193,-0.255413 1.35369,-0.255413 0.79178,0 1.362203,0.251156 0.570422,0.251156 0.885432,0.72367 0.315009,0.472514 0.336294,1.136588 h -1.62613 q -0.0298,-0.332037 -0.280955,-0.523596 -0.246899,-0.19156 -0.642789,-0.19156 -0.2469,0 -0.438459,0.07237 -0.19156,0.06811 -0.302239,0.19156 -0.106422,0.119192 -0.106422,0.280954 0,0.153248 0.09791,0.25967 0.09791,0.106422 0.306496,0.187303 0.212844,0.07662 0.540624,0.13622 l 0.510826,0.09365 q 0.544881,0.102165 0.936515,0.25967 0.39589,0.157504 0.647046,0.383119 0.251156,0.225615 0.370349,0.523597 0.119193,0.297982 0.119193,0.676845 0,0.664074 -0.319266,1.132331 -0.31501,0.464 -0.919487,0.7109 -0.604478,0.242642 -1.464369,0.242642 z"
         style="stroke:none;stroke-width:1.03519"
         id="path451" /><path
         d="m 40.999933,58.869091 v 1.294093 h -3.38848 v -1.294093 z m -2.630754,-1.225983 h 1.702754 v 4.078095 q 0,0.200074 0.07662,0.276698 0.08088,0.07237 0.315009,0.07237 0.114936,0 0.289468,0 0.178789,0 0.246899,0 v 1.294093 q -0.114935,0 -0.383119,0 -0.263927,0 -0.553395,0 -0.885432,0 -1.289836,-0.319267 -0.404404,-0.323523 -0.404404,-1.025909 z"
         style="stroke:none;stroke-width:1.03519"
         id="path453" /><path
         d="m 42.958099,63.445242 q -0.45123,0 -0.796038,-0.144734 -0.344807,-0.144735 -0.540624,-0.43846 -0.195817,-0.293725 -0.195817,-0.740697 0,-0.378863 0.131964,-0.638533 0.131963,-0.263927 0.366092,-0.429946 0.238385,-0.170275 0.553395,-0.255413 0.315009,-0.08939 0.676845,-0.114935 0.39589,-0.02554 0.634275,-0.06811 0.242643,-0.04682 0.349065,-0.123449 0.106422,-0.07662 0.106422,-0.200074 v -0.01703 q 0,-0.09791 -0.06385,-0.170276 -0.06385,-0.07237 -0.178789,-0.110679 -0.110679,-0.04257 -0.268184,-0.04257 -0.166019,0 -0.289468,0.04683 -0.119193,0.04683 -0.187303,0.140477 -0.06811,0.0894 -0.08514,0.221358 h -1.55802 q 0.03831,-0.510826 0.293725,-0.864147 0.255413,-0.357579 0.727928,-0.540625 0.476771,-0.187303 1.166386,-0.187303 0.51934,0 0.91523,0.106423 0.400147,0.102165 0.668331,0.306495 0.272441,0.204331 0.408661,0.502313 0.13622,0.293725 0.13622,0.676844 v 3.005361 H 44.26922 v -0.630019 h -0.01703 q -0.148991,0.268184 -0.340551,0.425688 -0.19156,0.153248 -0.429945,0.217101 -0.234129,0.06811 -0.523597,0.06811 z m 0.553395,-1.059965 q 0.183046,0 0.353321,-0.06811 0.174533,-0.07237 0.285212,-0.208587 0.110679,-0.13622 0.110679,-0.336294 v -0.357578 q -0.06385,0.02128 -0.136221,0.04257 -0.06811,0.02128 -0.148991,0.04257 -0.08088,0.01703 -0.178789,0.03831 -0.09791,0.01703 -0.217101,0.03831 -0.174532,0.0298 -0.302239,0.08939 -0.123449,0.0596 -0.19156,0.148991 -0.06811,0.08939 -0.06811,0.20433 0,0.114936 0.06385,0.200074 0.06385,0.08088 0.174532,0.12345 0.110679,0.04257 0.255413,0.04257 z"
         style="stroke:none;stroke-width:1.03519"
         id="path455" /><path
         d="m 48.892197,63.466526 q -0.719413,0 -1.260037,-0.293725 -0.540625,-0.293725 -0.842863,-0.821579 -0.297982,-0.53211 -0.297982,-1.234496 0,-0.702386 0.297982,-1.23024 0.302238,-0.53211 0.842863,-0.825835 0.540624,-0.293726 1.260037,-0.293726 0.493799,0 0.906717,0.144735 0.417175,0.140477 0.719413,0.404404 0.306496,0.25967 0.481028,0.621505 0.174533,0.357578 0.19156,0.796037 h -1.62613 q -0.01277,-0.148991 -0.06385,-0.268184 -0.04683,-0.119192 -0.131963,-0.20433 -0.08088,-0.08514 -0.195817,-0.127707 -0.110679,-0.04682 -0.246899,-0.04682 -0.225615,0 -0.387377,0.123449 -0.157505,0.12345 -0.242642,0.353322 -0.08514,0.229872 -0.08514,0.553395 0,0.319266 0.08514,0.553395 0.08514,0.229872 0.246899,0.353321 0.161762,0.12345 0.38312,0.12345 0.13622,0 0.246899,-0.04683 0.114936,-0.04683 0.195817,-0.131963 0.08514,-0.08514 0.131963,-0.208588 0.05108,-0.123449 0.06385,-0.276697 h 1.62613 q 0,0.438459 -0.170275,0.800294 -0.166019,0.361835 -0.472514,0.630019 -0.306496,0.263927 -0.727928,0.408661 -0.421431,0.144734 -0.928001,0.144734 z"
         style="stroke:none;stroke-width:1.03519"
         id="path457" /><path
         d="m 53.268276,62.342709 v -2.00925 h 0.195817 l 1.140845,-1.464368 h 1.924112 l -1.907084,2.375341 h -0.476771 z m -1.523964,1.021652 v -6.342758 h 1.702754 v 6.342758 z m 2.903195,0 -1.072735,-1.745323 1.098276,-1.191928 1.907085,2.937251 z"
         style="stroke:none;stroke-width:1.03519"
         id="path459" /></g><path
       id="rect5101"
       style="display:inline;opacity:1;mix-blend-mode:darken;fill:url(#linearGradient10135);fill-opacity:1;stroke:none;stroke-width:0.264583"
       d="m 12.070581,0.14469401 c -2.7042972,0 -5.1941357,0.88565249 -7.1964599,2.38383379 L 7.7623169,5.7371175 C 7.8828785,5.871045 7.9798879,6.0111674 8.0620402,6.1520793 A 1.5442181,1.5442181 0 0 1 8.2139689,6.143811 1.5442181,1.5442181 0 0 1 9.7580607,7.6879028 1.5442181,1.5442181 0 0 1 8.2139689,9.2319946 1.5442181,1.5442181 0 0 1 6.6698771,7.6879028 1.5442181,1.5442181 0 0 1 6.7122518,7.3297852 C 6.5651406,7.2256378 6.4212921,7.1020653 6.2890218,6.955131 L 3.4426839,3.7930501 C 1.3546175,5.9502304 0.07079671,8.8911352 0.07079671,12.144478 v 43.443343 c 0,6.647928 5.35186469,11.999785 11.99978429,11.999785 h 43.567367 c 6.647916,0 11.999784,-5.351857 11.999784,-11.999785 V 12.144478 c 0,-5.2958284 -3.397834,-9.7661638 -8.140072,-11.36674769 L 44.64637,17.788578 59.624784,17.14469 21.650875,44.332178 45.670597,21.023523 30.548006,22.709208 57.105042,0.2361613 C 56.624057,0.17799137 56.135114,0.14469401 55.637948,0.14469401 Z M 31.991329,47.312358 c 0.527849,0 0.981909,0.08371 1.362191,0.251147 0.380277,0.167437 0.675211,0.408461 0.885217,0.72347 0.210006,0.315009 0.322224,0.694166 0.336414,1.136882 h -1.626258 c -0.01987,-0.221358 -0.113683,-0.396298 -0.28112,-0.523999 -0.164595,-0.127707 -0.378932,-0.191203 -0.642854,-0.191203 -0.1646,0 -0.310511,0.0241 -0.438217,0.07235 -0.127702,0.04541 -0.228521,0.108903 -0.302307,0.191203 -0.07095,0.07946 -0.106453,0.173278 -0.106453,0.281119 0,0.102166 0.03291,0.188985 0.09818,0.259933 0.06527,0.07095 0.167384,0.133148 0.306441,0.187069 0.141896,0.05108 0.322016,0.09669 0.540536,0.136425 l 0.510563,0.09354 c 0.363254,0.06811 0.675805,0.154412 0.936894,0.259415 0.263922,0.105003 0.479551,0.233034 0.646989,0.383439 0.167433,0.15041 0.290541,0.324828 0.370003,0.523483 0.07946,0.198654 0.119372,0.424386 0.119372,0.676961 0,0.442716 -0.106516,0.82006 -0.31936,1.132231 -0.210006,0.309329 -0.516339,0.546467 -0.919324,0.711067 -0.402981,0.161761 -0.89125,0.242363 -1.46451,0.242363 -0.584607,0 -1.079879,-0.08501 -1.485697,-0.255282 C 30.112211,53.433688 29.804582,53.183854 29.594576,52.854655 29.38457,52.522619 29.27935,52.119876 29.27935,51.645943 h 1.673283 c 0.0085,0.170275 0.05672,0.316186 0.144694,0.438216 0.09081,0.122031 0.213917,0.215848 0.370003,0.28112 0.158923,0.06527 0.344744,0.09767 0.557589,0.09767 0.187298,0 0.350834,-0.02281 0.489892,-0.06821 0.139059,-0.04825 0.246871,-0.113039 0.323495,-0.195337 0.07946,-0.08514 0.118855,-0.18336 0.118855,-0.294039 0,-0.102165 -0.0368,-0.191577 -0.110587,-0.268201 -0.07379,-0.07662 -0.187301,-0.14323 -0.340548,-0.199988 -0.153248,-0.05676 -0.349176,-0.108073 -0.587561,-0.153479 L 31.288529,51.16484 c -0.612986,-0.116355 -1.081042,-0.331984 -1.404565,-0.646989 -0.323523,-0.31501 -0.485242,-0.708162 -0.485242,-1.179257 0,-0.40298 0.109109,-0.756225 0.327629,-1.059883 0.21852,-0.303657 0.522264,-0.540793 0.911055,-0.711068 0.388795,-0.170275 0.840259,-0.255281 1.353923,-0.255281 z m -9.654708,0.01705 c 0.266764,0 0.483686,0.07671 0.651123,0.22996 0.170275,0.15041 0.255282,0.345821 0.255282,0.587044 0,0.238385 -0.08501,0.434313 -0.255282,0.587561 -0.167437,0.153248 -0.384359,0.22996 -0.651123,0.22996 -0.266765,0 -0.485499,-0.07671 -0.655774,-0.22996 C 21.51341,48.580728 21.4297,48.383504 21.4297,48.142281 c 0,-0.238385 0.08371,-0.4325 0.251147,-0.58291 0.170275,-0.153248 0.389009,-0.22996 0.655774,-0.22996 z m -8.581905,0.08475 h 4.763534 v 1.498617 h -2.992583 v 1.123962 h 2.82205 v 1.438672 h -2.82205 v 2.281514 h -1.770951 z m 5.299935,0 h 1.702738 v 6.342765 h -1.702738 z m 30.142863,0 h 1.702738 v 3.311943 h 0.01705 L 52.0578,49.262107 h 1.924431 l -1.58595,1.974557 1.637109,2.520259 h -1.932698 l -0.954981,-1.553393 -0.245463,0.307991 v 1.245402 H 49.19751 Z m -13.375411,0.621668 h 1.702738 v 1.226281 h 0.928109 v 1.293978 h -0.928109 v 1.558045 c 0,0.133382 0.02592,0.225386 0.077,0.276469 0.05392,0.04825 0.158624,0.07235 0.31471,0.07235 h 0.289388 0.247013 v 1.293977 H 38.07003 37.516575 c -0.590282,0 -1.020241,-0.105999 -1.289844,-0.318843 C 35.957132,53.2224 35.822103,52.88004 35.822103,52.411788 v -1.855701 h -0.757577 v -1.293978 h 0.757577 z m -8.934855,1.123962 c 0.37744,0 0.709174,0.09952 0.995805,0.298173 0.289464,0.198655 0.516496,0.47389 0.681095,0.825789 0.1646,0.351903 0.247013,0.757757 0.247013,1.217497 0,0.476771 -0.0806,0.892216 -0.242362,1.246952 -0.158923,0.351903 -0.383362,0.625839 -0.672827,0.821656 -0.289468,0.192978 -0.631307,0.289388 -1.025778,0.289388 -0.198651,0 -0.377478,-0.0298 -0.536401,-0.0894 -0.158924,-0.05959 -0.29654,-0.145897 -0.412895,-0.259416 -0.116351,-0.113517 -0.208875,-0.252947 -0.276985,-0.417546 h -0.01705 v 2.443779 h -1.702739 v -6.274553 h 1.685685 v 0.561723 h 0.0217 c 0.08798,-0.147572 0.191383,-0.26938 0.310576,-0.365869 0.12203,-0.09933 0.260943,-0.173447 0.417029,-0.221692 0.15892,-0.05108 0.335154,-0.07648 0.528133,-0.07648 z m 14.366565,0 c 0.34622,0 0.65178,0.03551 0.915706,0.106453 0.266764,0.06811 0.489387,0.170222 0.668176,0.306442 0.181627,0.13622 0.317948,0.30364 0.408761,0.502295 0.09081,0.19581 0.135909,0.421549 0.135909,0.676961 v 3.004984 H 41.722518 V 53.12699 h -0.01705 c -0.09933,0.178789 -0.212841,0.320811 -0.340548,0.425814 -0.127707,0.102159 -0.271025,0.174472 -0.429948,0.217041 -0.156086,0.04541 -0.33102,0.06821 -0.523999,0.06821 -0.30082,0 -0.565945,-0.0482 -0.795817,-0.144694 -0.229871,-0.09648 -0.409997,-0.242922 -0.540535,-0.438732 -0.130545,-0.195817 -0.195854,-0.442543 -0.195854,-0.740524 0,-0.252569 0.0438,-0.465613 0.131775,-0.63872 0.08798,-0.175952 0.2103,-0.319269 0.366386,-0.429948 0.158917,-0.113517 0.343448,-0.198523 0.553454,-0.255282 0.210006,-0.05959 0.435221,-0.09769 0.676445,-0.114722 0.26392,-0.01703 0.475663,-0.03983 0.634586,-0.06821 0.161762,-0.03121 0.277868,-0.07242 0.348816,-0.123506 0.07095,-0.05108 0.106454,-0.117685 0.106454,-0.199988 v -0.01705 c 0,-0.06527 -0.021,-0.122288 -0.06356,-0.170532 -0.04257,-0.04825 -0.102175,-0.08505 -0.178801,-0.110588 -0.07379,-0.02838 -0.163203,-0.04237 -0.2682,-0.04237 -0.11068,0 -0.207095,0.01581 -0.289388,0.04703 -0.07946,0.03122 -0.142179,0.07761 -0.187586,0.140043 -0.04541,0.0596 -0.07391,0.13372 -0.08527,0.221692 h -1.558044 c 0.02553,-0.34055 0.123768,-0.628483 0.294038,-0.86403 0.170276,-0.238386 0.412595,-0.419022 0.727605,-0.541052 0.317841,-0.124869 0.706594,-0.187069 1.166337,-0.187069 z m 5.091679,0 c 0.329192,0 0.631126,0.0482 0.906404,0.144694 0.278117,0.09365 0.517844,0.228675 0.719336,0.404627 0.204331,0.173106 0.364753,0.379927 0.481108,0.62115 0.116355,0.238385 0.180368,0.504028 0.191719,0.796334 h -1.626257 c -0.0085,-0.09933 -0.02951,-0.188739 -0.06356,-0.268201 -0.03122,-0.07946 -0.07554,-0.14788 -0.132292,-0.204638 -0.05392,-0.05676 -0.119236,-0.09926 -0.195853,-0.127641 -0.07379,-0.03121 -0.155684,-0.04651 -0.246497,-0.04651 -0.15041,0 -0.279732,0.04069 -0.387573,0.12299 -0.105003,0.0823 -0.186129,0.200219 -0.242879,0.353467 -0.05676,0.153248 -0.08475,0.33778 -0.08475,0.553454 0,0.212844 0.02799,0.397369 0.08475,0.553455 0.05675,0.153248 0.139174,0.271168 0.247013,0.353467 0.107841,0.0823 0.235867,0.123506 0.383439,0.123506 0.09081,0 0.172711,-0.01581 0.246497,-0.04703 0.07662,-0.03122 0.141933,-0.07502 0.195853,-0.131775 0.05676,-0.05676 0.101077,-0.126474 0.132292,-0.208773 0.03405,-0.0823 0.05505,-0.174827 0.06356,-0.276985 h 1.626257 c 0,0.292298 -0.05701,0.559251 -0.170532,0.800467 -0.110679,0.241224 -0.267993,0.451147 -0.472323,0.629936 -0.204323,0.175951 -0.447166,0.312272 -0.728121,0.408761 -0.280946,0.09649 -0.589885,0.144694 -0.927591,0.144694 -0.479609,0 -0.899973,-0.09771 -1.260389,-0.293522 -0.360409,-0.195817 -0.64135,-0.469753 -0.842842,-0.821656 -0.198655,-0.354732 -0.297657,-0.766293 -0.297657,-1.23455 0,-0.468249 0.099,-0.87852 0.297657,-1.230415 0.201492,-0.35474 0.482433,-0.629973 0.842842,-0.82579 0.360416,-0.195817 0.78078,-0.293522 1.260389,-0.293522 z m -24.856364,0.102319 h 1.702738 v 4.494816 h -1.702738 z m 4.874121,1.225765 c -0.153248,0 -0.290864,0.0425 -0.412895,0.127641 -0.119193,0.0823 -0.212493,0.198923 -0.280603,0.349333 -0.06811,0.150409 -0.102319,0.329233 -0.102319,0.536401 0,0.207169 0.03421,0.387288 0.102319,0.540536 0.06811,0.153248 0.16141,0.272463 0.280603,0.357601 0.122031,0.0823 0.259647,0.123506 0.412895,0.123506 0.156086,0 0.288517,-0.04121 0.396358,-0.123506 0.107841,-0.08514 0.189738,-0.204353 0.246497,-0.357601 0.05676,-0.153248 0.08527,-0.333367 0.08527,-0.540536 0,-0.207168 -0.02851,-0.385992 -0.08527,-0.536401 -0.05676,-0.15041 -0.138657,-0.267033 -0.246497,-0.349333 -0.107841,-0.08514 -0.240272,-0.127641 -0.396358,-0.127641 z m 15.350484,1.319816 c -0.04257,0.01419 -0.08766,0.02818 -0.135909,0.04237 -0.04541,0.01419 -0.09542,0.02818 -0.149345,0.04237 -0.05392,0.01135 -0.113534,0.02457 -0.1788,0.03876 -0.06527,0.01135 -0.137587,0.02405 -0.217041,0.03824 -0.116355,0.01987 -0.21717,0.04967 -0.302308,0.0894 -0.0823,0.03973 -0.145795,0.08923 -0.191202,0.148828 -0.04541,0.05959 -0.06821,0.127495 -0.06821,0.204122 0,0.07662 0.02099,0.143752 0.06356,0.200504 0.04257,0.05392 0.100878,0.09461 0.174666,0.12299 0.07379,0.02838 0.158792,0.04289 0.255282,0.04289 0.12203,0 0.239956,-0.02281 0.353466,-0.06821 0.116356,-0.04825 0.211468,-0.117962 0.285254,-0.208773 0.07379,-0.09081 0.110588,-0.202514 0.110588,-0.335897 z" /></g></svg>
